<svg width="24" height="24" viewBox="0 0 24 24" fill="none" xmlns="http://www.w3.org/2000/svg">
<g clip-path="url(#clip0_1212_3989)">
<path d="M20 22L4 22C3.73478 22 3.48043 21.8946 3.29289 21.7071C3.10536 21.5196 3 21.2652 3 21L3 3C3 2.73478 3.10536 2.48043 3.29289 2.29289C3.48043 2.10536 3.73478 2 4 2L20 2C20.2652 2 20.5196 2.10536 20.7071 2.29289C20.8946 2.48043 21 2.73478 21 3L21 21C21 21.2652 20.8946 21.5196 20.7071 21.7071C20.5196 21.8946 20.2652 22 20 22ZM19 20L19 4L5 4L5 20L19 20ZM8 7L16 7V9L8 9V7ZM8 11L16 11V13L8 13L8 11ZM8 15L13 15V17H8V15Z" fill="white" fill-opacity="0.64"/>
</g>
<defs>
<clipPath id="clip0_1212_3989">
<rect width="24" height="24" fill="white"/>
</clipPath>
</defs>
</svg>
