<svg width="25" height="24" viewBox="0 0 25 24" fill="none" xmlns="http://www.w3.org/2000/svg">
<path d="M13.0387 23.9999C10.2604 24.0138 7.56348 23.0633 5.40791 21.3105C3.25233 19.5578 1.77172 17.1114 1.21868 14.3887C0.665649 11.6661 1.07446 8.83588 2.37537 6.38103C3.67627 3.92618 5.78866 1.99878 8.35213 0.927672C10.9156 -0.143432 13.7713 -0.291869 16.432 0.507686C19.0927 1.30724 21.3936 3.00525 22.942 5.31199C24.4904 7.61874 25.1904 10.3913 24.9226 13.1566C24.6549 15.9219 23.4359 18.5086 21.4736 20.4754C19.2386 22.7193 16.2057 23.9866 13.0387 23.9999V23.9999ZM11.1772 9.79515V18.5394H14.0284V13.6753C14.0284 13.2384 14.0284 13.0745 14.193 12.9107C14.2654 12.5963 14.4426 12.3158 14.6954 12.1154C14.9482 11.915 15.2617 11.8066 15.5843 11.8079C15.6323 11.8079 15.6803 11.8079 15.7283 11.8153C15.9459 11.8116 16.1613 11.8606 16.356 11.958C16.5507 12.0554 16.7189 12.1984 16.8465 12.3748C17.1389 12.8048 17.2848 13.3175 17.2628 13.837V18.5364H20.0528V13.5115C20.0528 11.0455 18.815 9.63129 16.6575 9.63129C16.1534 9.63446 15.6563 9.74914 15.2018 9.9671C14.7472 10.1851 14.3465 10.5009 14.0284 10.892V9.79515H11.1772ZM6.57956 9.79146V18.5357H9.64636V9.79146H6.57956ZM7.95981 5.57618C7.75736 5.5757 7.5568 5.61511 7.36958 5.69215C7.18237 5.7692 7.01217 5.88238 6.86871 6.02523C6.72525 6.16807 6.61133 6.33778 6.53348 6.52466C6.45563 6.71154 6.41536 6.91193 6.41497 7.11438C6.42804 7.32103 6.483 7.52287 6.57651 7.70762C6.67001 7.89237 6.80012 8.05617 6.9589 8.18907C7.11769 8.32197 7.30185 8.42119 7.50018 8.48069C7.69851 8.5402 7.90687 8.55875 8.11259 8.53522C8.59669 8.55763 9.06992 8.38723 9.42862 8.06136C9.55201 7.93701 9.64907 7.78906 9.714 7.62635C9.77893 7.46365 9.8104 7.28952 9.80652 7.11438C9.81056 6.8977 9.76803 6.68269 9.68181 6.48386C9.59558 6.28504 9.46768 6.10705 9.30673 5.96192C9.14579 5.81679 8.95556 5.70791 8.74891 5.64263C8.54226 5.57736 8.32401 5.55722 8.1089 5.58356C8.05576 5.5784 8.00704 5.57618 7.95685 5.57618H7.95981Z" fill="white"/>
</svg>
