<svg width="25" height="24" viewBox="0 0 25 24" fill="none" xmlns="http://www.w3.org/2000/svg">
<path d="M12.9957 24C10.2181 24.004 7.52521 23.0443 5.37615 21.2846C3.2271 19.5249 1.75503 17.0742 1.21098 14.3505C0.666932 11.6267 1.08461 8.79853 2.39278 6.3483C3.70094 3.89807 5.81858 1.97752 8.38456 0.91418C10.9505 -0.149161 13.8059 -0.289437 16.4638 0.517273C19.1216 1.32398 21.4173 3.02772 22.9593 5.33793C24.5014 7.64813 25.1942 10.4217 24.9198 13.1857C24.6453 15.9497 23.4205 18.5329 21.4543 20.4947C20.3452 21.608 19.0269 22.4908 17.5752 23.0924C16.1235 23.694 14.5671 24.0024 12.9957 24V24ZM10.0413 9.58893V12.0457H11.409V18.9242H14.2536V12.0457H16.2237L16.4449 9.58893H14.2536V8.2234C14.2536 7.64312 14.6046 7.56865 14.9106 7.56865H16.3306V5.16718H14.2536C14.1894 5.16275 14.1253 5.16054 14.0612 5.16054C13.6961 5.16035 13.3348 5.23533 13 5.38081C12.6651 5.52629 12.3638 5.73916 12.1148 6.00615C11.8658 6.27314 11.6744 6.58854 11.5526 6.93271C11.4308 7.27687 11.3812 7.64244 11.4068 8.00663V9.58893H10.0413Z" fill="white"/>
</svg>
