<svg width="25" height="24" viewBox="0 0 25 24" fill="none" xmlns="http://www.w3.org/2000/svg">
<path d="M13.0011 24H12.9595C9.8084 24.0001 6.78408 22.7407 4.54159 20.4946C2.2991 18.2485 1.019 15.1965 0.978516 11.9996C1.01937 8.8031 2.29953 5.75153 4.54179 3.50565C6.78406 1.25976 9.80798 0.000315073 12.9588 0L13.0004 0C16.1509 0.000898821 19.1742 1.2606 21.416 3.50643C23.6578 5.75225 24.9377 8.80349 24.9785 11.9996C24.9377 15.1957 23.6579 18.2469 21.4163 20.4928C19.1747 22.7388 16.1515 23.9987 13.0011 24V24ZM9.85633 19.1781C9.96575 19.1892 10.0752 19.1944 10.1868 19.1944C10.6578 19.1949 11.1239 19.0961 11.5553 18.9042C12.3236 18.7901 13.0267 18.4021 13.5388 17.8099C14.0508 17.2177 14.3384 16.4598 14.3499 15.6721H14.3463C14.3609 15.0891 14.2084 14.5143 13.9073 14.0174C13.6063 13.5206 13.1696 13.123 12.6502 12.873C12.4246 12.744 12.2262 12.5711 12.0665 12.3642C11.9068 12.1573 11.7888 11.9205 11.7194 11.6673C11.7194 11.5052 11.7194 11.2839 12.3213 10.845C12.7507 10.5565 13.1046 10.1664 13.3525 9.7083C13.6005 9.25022 13.735 8.73789 13.7445 8.21538C13.7524 7.50139 13.5209 6.80587 13.0879 6.24295H13.5256L14.5097 5.42067C14.5097 5.42067 14.606 5.29041 14.5775 5.23194C14.5681 5.21195 14.5447 5.20159 14.5097 5.20159C14.5097 5.04913 14.5097 4.91738 14.4492 4.85595C14.4353 4.84282 14.419 4.83269 14.4012 4.8262C14.3834 4.81971 14.3645 4.81699 14.3456 4.81821H10.0124C9.53609 4.85616 9.07131 4.9863 8.6432 5.20159C7.96479 5.39217 7.35572 5.77897 6.8903 6.31479C6.42488 6.8506 6.12323 7.51228 6.02216 8.21908C5.99981 8.6645 6.06697 9.10988 6.21957 9.52815C6.37218 9.94641 6.60703 10.3288 6.90985 10.6521C7.21267 10.9754 7.57713 11.2329 7.98108 11.4088C8.38503 11.5847 8.82002 11.6754 9.25961 11.6755C9.31286 11.6755 9.36684 11.6755 9.4201 11.6718V12.1099C9.40125 12.2758 9.41578 12.4439 9.4628 12.6039C9.50982 12.7639 9.58836 12.9126 9.69365 13.041H9.68563C8.78311 13.0374 7.89228 13.248 7.08429 13.656C6.3532 14.0032 5.76427 14.5981 5.41888 15.3383C5.24474 15.6149 5.16764 15.9429 5.20004 16.2694C5.14243 16.6505 5.21998 17.04 5.41888 17.3685C5.69747 17.7769 6.05498 18.1235 6.46968 18.3874C6.88438 18.6513 7.34763 18.8269 7.83128 18.9035C8.36363 19.0942 8.9241 19.1916 9.48867 19.1914C9.60903 19.1922 9.73231 19.187 9.85633 19.1781ZM14.5185 10.6844C14.3543 10.6844 14.3543 10.845 14.3543 11.0678V11.6673C14.3543 11.9404 14.3543 12.1055 14.5185 12.1055H16.9805V14.5168C16.9805 14.7388 17.1475 14.7388 17.3095 14.7388H17.9171C18.1899 14.7388 18.3548 14.7388 18.3548 14.5168V12.1099H20.8205C20.9853 12.1099 20.9853 11.9449 20.9853 11.6718L20.9802 11.0686C20.9802 10.8465 20.9802 10.6852 20.8161 10.6852H18.3504V8.21538C18.3504 8.05033 18.1856 8.05033 17.9127 8.05033H17.3102C17.1482 8.05033 16.9812 8.05033 16.9812 8.21538V10.6815L14.5185 10.6844ZM9.85633 17.8089C8.47979 17.8089 7.22654 16.9207 7.22654 15.946C7.22654 14.8795 8.70228 14.0823 10.0212 14.0823H11.1154C11.1154 14.2008 11.1154 14.254 11.1402 14.2792C11.165 14.3044 11.2037 14.3014 11.2803 14.3014C11.7225 14.6594 12.1264 15.0635 12.4854 15.5071V15.946C12.5047 16.2105 12.4584 16.4758 12.3507 16.7175C12.243 16.9593 12.0774 17.1698 11.869 17.33C11.2632 17.6975 10.5599 17.8648 9.85633 17.8089V17.8089ZM10.2583 10.6852H10.2357C9.97358 10.667 9.71889 10.5893 9.49045 10.4577C9.26202 10.3261 9.06569 10.1441 8.91602 9.92506C8.53728 9.43076 8.29462 8.84334 8.2128 8.22278C8.17109 7.93309 8.18841 7.63781 8.26369 7.35519C8.33898 7.07257 8.47063 6.80863 8.65049 6.5797C8.81462 6.25035 9.25231 6.25035 9.41718 6.25035C9.95987 6.30163 10.4654 6.55213 10.839 6.95483C11.2125 7.35752 11.4283 7.88471 11.4459 8.43741C11.5676 8.73916 11.6014 9.07003 11.5433 9.3907C11.4851 9.71136 11.3373 10.0083 11.1176 10.2463C11.0177 10.382 10.8881 10.4923 10.7389 10.5685C10.5898 10.6447 10.4252 10.6846 10.2583 10.6852V10.6852Z" fill="white"/>
</svg>
