<svg width="25" height="24" viewBox="0 0 25 24" fill="none" xmlns="http://www.w3.org/2000/svg">
<path d="M13.0256 24H12.9235C9.77601 24 6.75575 22.7394 4.51907 20.4924C2.28239 18.2453 1.01003 15.1933 0.978516 11.9996C1.01041 8.80627 2.28281 5.75467 4.51927 3.50783C6.75574 1.26099 9.77559 0.000420896 12.9227 0L13.0205 0C16.1679 0.00193683 19.1878 1.26272 21.4254 3.50898C23.6629 5.75525 24.9377 8.80595 24.9734 11.9996H24.9785C24.943 15.1934 23.6683 18.2443 21.4307 20.4908C19.1932 22.7372 16.1732 23.9981 13.0256 24ZM8.61896 11.6192C7.92624 11.6175 7.26091 11.8936 6.76792 12.3874C6.51788 12.638 6.31936 12.9365 6.1839 13.2655C6.04843 13.5946 5.97871 13.9476 5.97879 14.3042V16.3313C5.97462 16.6886 6.0413 17.043 6.17486 17.3736C6.30842 17.7041 6.50614 18.0041 6.75625 18.2555C7.24324 18.7439 7.90074 19.0171 8.58541 19.0156H8.66709H17.7691C18.114 19.0154 18.4555 18.9455 18.7734 18.8098C19.0914 18.6742 19.3795 18.4755 19.6209 18.2255C19.8622 17.9755 20.052 17.6791 20.1791 17.3537C20.3062 17.0283 20.3681 16.6805 20.3611 16.3306V14.3035C20.3638 13.9519 20.2979 13.6032 20.1672 13.2776C20.0364 12.9519 19.8435 12.6558 19.5994 12.4062C19.3553 12.1566 19.065 11.9584 18.7451 11.8233C18.4252 11.6881 18.0821 11.6185 17.7356 11.6185H8.61896V11.6192ZM14.8693 6.36467L14.8773 9.70835C14.8773 10.0369 14.8773 10.1472 15.0414 10.256C15.0968 10.478 15.3186 10.478 15.479 10.478C15.5045 10.478 15.5301 10.478 15.5519 10.478C15.7 10.4778 15.8453 10.4374 15.9728 10.3611L16.0457 10.3145C16.2125 10.2362 16.3431 10.0957 16.4104 9.92223V10.4699H17.2856V6.35875H16.4104V9.48188C16.3885 9.48188 16.3761 9.50705 16.3579 9.54035C16.3426 9.57741 16.3199 9.6108 16.2911 9.63834C16.2624 9.66588 16.2282 9.68696 16.1908 9.70021H15.746V6.35875L14.8693 6.36467ZM12.9869 6.30103C12.7129 6.30133 12.4476 6.399 12.2372 6.57708C12.1247 6.68006 12.0366 6.8075 11.9795 6.94988C11.9225 7.09227 11.8978 7.2459 11.9075 7.3993V9.43008C11.9091 9.73696 12.0272 10.0314 12.2372 10.2523C12.456 10.4743 12.6215 10.4743 13.0613 10.4743C13.2144 10.4998 13.371 10.4932 13.5215 10.455C13.672 10.4169 13.8132 10.3479 13.9365 10.2523C14.1602 10.0358 14.2969 9.74288 14.3201 9.43008V7.39412C14.3203 7.23677 14.286 7.08134 14.2197 6.93912C14.1533 6.79689 14.0566 6.67145 13.9365 6.5719C13.8169 6.46782 13.6775 6.38981 13.5269 6.34271C13.3764 6.2956 13.2179 6.28041 13.0613 6.29807C13.0365 6.29609 13.0117 6.29511 12.9869 6.29511V6.30103ZM9.66117 4.99183H8.66709L9.87632 8.32958V10.4662H10.7515V8.21931L11.7952 4.98591H10.8106L10.3205 7.17876L9.66117 4.99183ZM16.9435 17.6472H16.9019C16.764 17.6343 16.6299 17.5938 16.5075 17.528C16.385 17.4622 16.2767 17.3724 16.1887 17.2638C16.0592 17.0282 15.9844 16.7657 15.9699 16.4963V14.8534C15.966 14.7087 15.9936 14.5649 16.0507 14.4323C16.1078 14.2996 16.193 14.1814 16.3002 14.0859C16.3992 13.9836 16.5199 13.9057 16.6532 13.8582C16.7865 13.8108 16.9287 13.795 17.069 13.8121C17.3304 13.8198 17.5818 13.9162 17.783 14.0859C17.894 14.1781 17.9818 14.2958 18.039 14.4292C18.0962 14.5627 18.1212 14.7081 18.1119 14.8534V15.8392H16.6846V16.822C16.715 16.8228 16.7449 16.8298 16.7725 16.8425C16.8002 16.8552 16.8251 16.8734 16.8458 16.896C16.8747 16.9258 16.9094 16.9493 16.9477 16.965C16.9859 16.9807 17.027 16.9882 17.0682 16.987C17.0886 16.987 17.101 16.9648 17.1178 16.9367C17.1317 16.9027 17.1554 16.8737 17.1856 16.8534C17.2159 16.8331 17.2515 16.8224 17.2878 16.8227C17.2916 16.7844 17.2986 16.7465 17.3089 16.7095C17.3279 16.6389 17.3396 16.5665 17.3439 16.4934V16.2714H18.1104V16.4934C18.1146 16.6381 18.0871 16.782 18.03 16.9147C17.9729 17.0474 17.8875 17.1656 17.78 17.2608C17.6755 17.3814 17.5468 17.478 17.4025 17.5441C17.2583 17.6102 17.1018 17.6443 16.9435 17.6442V17.6472ZM17.0062 14.4648C16.8966 14.4648 16.7878 14.4841 16.6846 14.5218V15.179H17.341V14.8504C17.3384 14.7947 17.3291 14.7395 17.3133 14.6861C17.2974 14.6327 17.2881 14.5775 17.2856 14.5218C17.1207 14.4671 17.1207 14.4671 17.0668 14.4671L17.0062 14.4648ZM14.9517 17.4866C14.9249 17.4866 14.8981 17.4849 14.8715 17.4814C14.7175 17.497 14.5629 17.458 14.4339 17.3711C14.3264 17.3505 14.2293 17.2924 14.1597 17.2068V17.4807H13.5033V12.6035H14.1597V14.2472C14.1906 14.1608 14.2405 14.0826 14.3055 14.0186C14.3512 13.9701 14.3931 13.9181 14.431 13.8631H14.8686C15.0874 13.8631 15.199 13.8631 15.3062 14.0852C15.525 14.2509 15.525 14.3649 15.525 14.7438V16.7717C15.525 16.987 15.525 17.2098 15.4148 17.2653C15.358 17.3338 15.2871 17.389 15.2071 17.427C15.1272 17.4649 15.04 17.4848 14.9517 17.4851V17.4866ZM14.3252 14.3575C14.2603 14.3575 14.2333 14.4152 14.2114 14.4611C14.1961 14.4937 14.183 14.5226 14.1604 14.5226V16.7694C14.1769 16.7844 14.1953 16.7971 14.2151 16.8072C14.2502 16.8215 14.2798 16.8468 14.2996 16.8794C14.3194 16.9121 14.3284 16.9503 14.3252 16.9885H14.544C14.6541 16.9885 14.6541 16.9885 14.7628 16.8235V14.7401C14.7628 14.6373 14.7628 14.5751 14.7344 14.5455C14.7231 14.5363 14.7102 14.5294 14.6962 14.5254C14.6823 14.5213 14.6678 14.5201 14.6534 14.5218C14.6553 14.4998 14.6528 14.4776 14.6462 14.4565C14.6395 14.4354 14.6289 14.4158 14.6148 14.399C14.5619 14.3622 14.4973 14.3472 14.4339 14.3568L14.3252 14.3575ZM9.65752 17.4807H8.88662V13.371H8.01143V12.6035H10.5334V13.371H9.65752V17.4792V17.4807ZM13.0066 17.4807H12.1803V17.0418C12.1393 17.1302 12.0716 17.203 11.987 17.2497C11.9134 17.2961 11.8487 17.3555 11.7959 17.4251C11.6846 17.4625 11.5681 17.4814 11.4509 17.4814H11.4116C11.1891 17.4814 11.0279 17.4814 10.974 17.4259C10.9647 17.3375 10.94 17.2516 10.901 17.172C10.8492 17.0637 10.818 16.9465 10.8091 16.8264V13.9179H11.6325V16.8235H11.7988C11.8747 16.8201 11.9491 16.8012 12.0176 16.768C12.0366 16.7398 12.1321 16.6037 12.1825 16.6037V13.9179H13.0059V17.4769L13.0066 17.4807ZM13.0445 9.81196C12.9968 9.81183 12.9495 9.80201 12.9055 9.78307C12.8616 9.76413 12.8218 9.73646 12.7885 9.70169V7.12325C12.8219 7.08846 12.8618 7.06078 12.9059 7.04184C12.95 7.02291 12.9974 7.0131 13.0452 7.01298H13.0635C13.2283 7.01298 13.2823 7.01298 13.2823 7.12325C13.4464 7.12325 13.4464 7.23501 13.4464 7.34528V9.48188C13.4464 9.59438 13.4464 9.70391 13.2823 9.70391C13.2823 9.81418 13.2269 9.81418 13.0635 9.81418L13.0445 9.81196Z" fill="white"/>
</svg>
