<svg width="25" height="24" viewBox="0 0 25 24" fill="none" xmlns="http://www.w3.org/2000/svg">
<path d="M9.12968 17.6333C8.5816 17.6328 8.05613 17.4148 7.66859 17.0272C7.28104 16.6397 7.06306 16.1142 7.0625 15.5661V8.42657C7.06306 7.87849 7.28104 7.35302 7.66859 6.96547C8.05613 6.57791 8.5816 6.35994 9.12968 6.35938H16.2692C16.8172 6.35994 17.3427 6.57791 17.7302 6.96547C18.1178 7.35302 18.3358 7.87849 18.3363 8.42657V15.5661C18.3358 16.1142 18.1178 16.6397 17.7302 17.0272C17.3427 17.4148 16.8172 17.6328 16.2692 17.6333H9.12968Z" fill="white"/>
<path d="M12.7006 9.85352C12.2767 9.85338 11.8622 9.97896 11.5097 10.2144C11.1571 10.4498 10.8823 10.7845 10.72 11.1761C10.5577 11.5677 10.5151 11.9987 10.5977 12.4145C10.6804 12.8303 10.8844 13.2123 11.1841 13.5121C11.4839 13.8119 11.8657 14.0161 12.2815 14.0989C12.6973 14.1816 13.1283 14.1392 13.5199 13.977C13.9116 13.8148 14.2464 13.5401 14.4819 13.1876C14.7175 12.8351 14.8432 12.4207 14.8432 11.9968C14.8432 11.4285 14.6175 10.8834 14.2157 10.4815C13.8139 10.0796 13.2689 9.8537 12.7006 9.85352V9.85352Z" fill="white"/>
<path d="M0.978516 12C0.978516 9.62663 1.6823 7.30655 3.00088 5.33316C4.31946 3.35977 6.1936 1.8217 8.38631 0.913451C10.579 0.00519943 12.9918 -0.232441 15.3196 0.230582C17.6474 0.693605 19.7856 1.83649 21.4638 3.51472C23.142 5.19295 24.2849 7.33115 24.7479 9.65892C25.211 11.9867 24.9733 14.3995 24.0651 16.5922C23.1568 18.7849 21.6187 20.6591 19.6454 21.9776C17.672 23.2962 15.3519 24 12.9785 24C9.79592 24 6.74367 22.7357 4.49323 20.4853C2.2428 18.2348 0.978516 15.1826 0.978516 12Z" fill="white"/>
<path d="M13.0622 9.57553C12.4967 9.57553 11.9543 9.80834 11.5544 10.2228C11.1544 10.6372 10.9298 11.1992 10.9298 11.7853C10.9298 12.3714 11.1544 12.9334 11.5544 13.3478C11.9543 13.7622 12.4967 13.995 13.0622 13.995C13.6278 13.995 14.1702 13.7622 14.5701 13.3478C14.97 12.9334 15.1947 12.3714 15.1947 11.7853C15.1947 11.1992 14.97 10.6372 14.5701 10.2228C14.1702 9.80834 13.6278 9.57553 13.0622 9.57553ZM13.0622 8.10236C14.0048 8.10236 14.9088 8.49038 15.5753 9.18106C16.2418 9.87175 16.6163 10.8085 16.6163 11.7853C16.6163 12.7621 16.2418 13.6988 15.5753 14.3895C14.9088 15.0802 14.0048 15.4682 13.0622 15.4682C12.1196 15.4682 11.2156 15.0802 10.5491 14.3895C9.8826 13.6988 9.50816 12.7621 9.50816 11.7853C9.50816 10.8085 9.8826 9.87175 10.5491 9.18106C11.2156 8.49038 12.1196 8.10236 13.0622 8.10236V8.10236ZM17.6825 7.91821C17.6825 8.16241 17.5889 8.3966 17.4223 8.56927C17.2556 8.74194 17.0296 8.83895 16.794 8.83895C16.5583 8.83895 16.3323 8.74194 16.1657 8.56927C15.9991 8.3966 15.9055 8.16241 15.9055 7.91821C15.9055 7.67402 15.9991 7.43983 16.1657 7.26716C16.3323 7.09449 16.5583 6.99748 16.794 6.99748C17.0296 6.99748 17.2556 7.09449 17.4223 7.26716C17.5889 7.43983 17.6825 7.67402 17.6825 7.91821V7.91821ZM13.0622 5.8926C11.3037 5.8926 11.0165 5.89776 10.1984 5.93533C9.64108 5.96258 9.26719 6.03992 8.92032 6.17987C8.61183 6.30362 8.38934 6.45167 8.15264 6.69769C7.93016 6.92043 7.7591 7.19237 7.65223 7.4932C7.51718 7.85413 7.44254 8.24084 7.41695 8.81758C7.37999 9.63077 7.37572 9.9151 7.37572 11.7853C7.37572 13.6076 7.3807 13.9052 7.41695 14.753C7.44325 15.3297 7.51789 15.7179 7.65223 16.0766C7.77307 16.397 7.91523 16.6276 8.15122 16.8721C8.39076 17.1196 8.61325 17.2677 8.9189 17.39C9.27004 17.5307 9.64392 17.6087 10.1984 17.6352C10.9831 17.6735 11.2575 17.678 13.0622 17.678C14.8208 17.678 15.1079 17.6728 15.9261 17.6352C16.4819 17.608 16.8565 17.5307 17.2034 17.3914C17.5112 17.267 17.7351 17.1189 17.9711 16.8744C18.2106 16.6261 18.3535 16.3956 18.4715 16.0788C18.6065 15.7157 18.6819 15.3275 18.7075 14.753C18.7444 13.9398 18.7487 13.6555 18.7487 11.7853C18.7487 9.96297 18.7437 9.66539 18.7075 8.81758C18.6812 8.24157 18.6065 7.85266 18.4715 7.4932C18.3644 7.19268 18.1936 6.92085 17.9718 6.69769C17.7569 6.46703 17.4945 6.28975 17.2041 6.17914C16.8558 6.03918 16.4819 5.96184 15.9261 5.93533C15.1413 5.89702 14.867 5.8926 13.0622 5.8926ZM13.0622 4.41943C14.9935 4.41943 15.2345 4.4268 15.9922 4.46363C16.7492 4.50046 17.2645 4.62347 17.718 4.80614C18.1872 4.99323 18.5824 5.24662 18.9776 5.65542C19.339 6.02364 19.6187 6.46905 19.7972 6.96065C19.9727 7.42986 20.0921 7.96462 20.1277 8.74908C20.1611 9.53428 20.1703 9.78398 20.1703 11.7853C20.1703 13.7866 20.1632 14.0363 20.1277 14.8215C20.0921 15.606 19.9727 16.14 19.7972 16.6099C19.6192 17.1018 19.3395 17.5473 18.9776 17.9152C18.6222 18.2896 18.1924 18.5794 17.718 18.7644C17.2652 18.9464 16.7492 19.0701 15.9922 19.1069C15.2345 19.1416 14.9935 19.1511 13.0622 19.1511C11.1309 19.1511 10.89 19.1438 10.1323 19.1069C9.37524 19.0701 8.8599 18.9464 8.4064 18.7644C7.93181 18.5799 7.50191 18.29 7.14684 17.9152C6.78533 17.547 6.50564 17.1016 6.32728 16.6099C6.151 16.1407 6.03229 15.606 5.99675 14.8215C5.96334 14.0363 5.9541 13.7866 5.9541 11.7853C5.9541 9.78398 5.96121 9.53428 5.99675 8.74908C6.03229 7.96388 6.151 7.43059 6.32728 6.96065C6.50515 6.46875 6.7849 6.02322 7.14684 5.65542C7.50202 5.28067 7.93188 4.99082 8.4064 4.80614C8.8599 4.62347 9.37453 4.50046 10.1323 4.46363C10.89 4.42901 11.1309 4.41943 13.0622 4.41943Z" fill="#1A3167"/>
</svg>
