<svg width="24" height="24" viewBox="0 0 24 24" fill="none" xmlns="http://www.w3.org/2000/svg">
<path d="M21.7694 20.6347L16.1819 15.0453C17.3122 13.6693 17.984 11.9093 17.984 9.98933C17.984 5.57333 14.4119 2 9.99733 2C5.57214 2 2 5.57333 2 9.98933C2 14.4053 5.57214 17.9787 9.98666 17.9787C11.906 17.9787 13.6654 17.296 15.041 16.176L20.6284 21.7653C20.7884 21.9253 20.991 22 21.1936 22C21.3962 22 21.5988 21.9253 21.7587 21.7653C22.0786 21.456 22.0786 20.944 21.7694 20.6347ZM9.98666 16.3787C6.46784 16.3787 3.59947 13.5093 3.59947 9.98933C3.59947 6.46933 6.46784 3.6 9.98666 3.6C13.5055 3.6 16.3739 6.46933 16.3739 9.98933C16.3739 13.52 13.5162 16.3787 9.98666 16.3787Z" fill="#001325" fill-opacity="0.64"/>
</svg>
