<svg width="25" height="24" viewBox="0 0 25 24" fill="none" xmlns="http://www.w3.org/2000/svg">
<path d="M19.439 4H8.61734C8.33595 4 8.0661 4.11178 7.86713 4.31076C7.66816 4.50974 7.55638 4.77961 7.55638 5.06101C7.55638 5.3424 7.66816 5.61227 7.86713 5.81125C8.0661 6.01023 8.33595 6.12201 8.61734 6.12201H16.8822L4.80852 18.1963C4.61091 18.3951 4.5 18.664 4.5 18.9443C4.5 19.2246 4.61091 19.4935 4.80852 19.6923C5.00613 19.8883 5.27285 19.9988 5.55118 20C5.69081 20.0008 5.82923 19.974 5.95849 19.9212C6.08775 19.8684 6.20532 19.7906 6.30446 19.6923L18.3781 7.61803V15.8833C18.3781 16.1647 18.4899 16.4345 18.6888 16.6335C18.8878 16.8325 19.1577 16.9443 19.439 16.9443C19.7204 16.9443 19.9903 16.8325 20.1893 16.6335C20.3882 16.4345 20.5 16.1647 20.5 15.8833V5.06101C20.5 4.77961 20.3882 4.50974 20.1893 4.31076C19.9903 4.11178 19.7204 4 19.439 4Z" fill="white"/>
</svg>
