<svg width="20" height="20" viewBox="0 0 20 20" fill="none" xmlns="http://www.w3.org/2000/svg">
<path d="M15.7822 3.33276H6.76412C6.52964 3.33276 6.30475 3.42592 6.13895 3.59173C5.97314 3.75755 5.87999 3.98244 5.87999 4.21694C5.87999 4.45143 5.97314 4.67633 6.13895 4.84214C6.30475 5.00795 6.52964 5.10111 6.76412 5.10111H13.6515L3.59011 15.163C3.42544 15.3286 3.33301 15.5527 3.33301 15.7863C3.33301 16.0199 3.42544 16.244 3.59011 16.4097C3.75478 16.573 3.97705 16.6651 4.20899 16.6661C4.32535 16.6668 4.4407 16.6445 4.54842 16.6004C4.65614 16.5564 4.75411 16.4916 4.83672 16.4097L14.8981 6.34779V13.2355C14.8981 13.47 14.9912 13.6949 15.157 13.8607C15.3228 14.0265 15.5477 14.1197 15.7822 14.1197C16.0167 14.1197 16.2416 14.0265 16.4074 13.8607C16.5732 13.6949 16.6663 13.47 16.6663 13.2355V4.21694C16.6663 3.98244 16.5732 3.75755 16.4074 3.59173C16.2416 3.42592 16.0167 3.33276 15.7822 3.33276Z" fill="white"/>
</svg>
