<svg width="24" height="24" viewBox="0 0 24 24" fill="none" xmlns="http://www.w3.org/2000/svg">
<path d="M18.939 4H8.11734C7.83595 4 7.5661 4.11178 7.36713 4.31076C7.16816 4.50974 7.05638 4.77961 7.05638 5.06101C7.05638 5.3424 7.16816 5.61227 7.36713 5.81125C7.5661 6.01023 7.83595 6.12201 8.11734 6.12201H16.3822L4.30852 18.1963C4.11091 18.3951 4 18.664 4 18.9443C4 19.2246 4.11091 19.4935 4.30852 19.6923C4.50613 19.8883 4.77285 19.9988 5.05118 20C5.19081 20.0008 5.32923 19.974 5.45849 19.9212C5.58775 19.8684 5.70532 19.7906 5.80446 19.6923L17.8781 7.61803V15.8833C17.8781 16.1647 17.9899 16.4345 18.1888 16.6335C18.3878 16.8325 18.6577 16.9443 18.939 16.9443C19.2204 16.9443 19.4903 16.8325 19.6893 16.6335C19.8882 16.4345 20 16.1647 20 15.8833V5.06101C20 4.77961 19.8882 4.50974 19.6893 4.31076C19.4903 4.11178 19.2204 4 18.939 4Z" fill="white"/>
</svg>
