<svg width="24" height="24" viewBox="0 0 24 24" fill="none" xmlns="http://www.w3.org/2000/svg">
<g clip-path="url(#clip0_1212_3570)">
<path d="M20 2C20.552 2 21 2.448 21 3V6.757L19 8.757V4L5 4L5 20L19 20V17.242L21 15.242L21 21C21 21.552 20.552 22 20 22L4 22C3.448 22 3 21.552 3 21L3 3C3 2.448 3.448 2 4 2L20 2ZM21.778 8.808L23.192 10.222L15.414 18L13.998 17.998L14 16.586L21.778 8.808V8.808ZM13 12V14L8 14L8 12L13 12ZM16 8V10L8 10V8L16 8Z" fill="white" fill-opacity="0.64"/>
</g>
<defs>
<clipPath id="clip0_1212_3570">
<rect width="24" height="24" fill="white"/>
</clipPath>
</defs>
</svg>
