<svg width="24" height="24" viewBox="0 0 24 24" fill="none" xmlns="http://www.w3.org/2000/svg">
<g clip-path="url(#clip0_1212_3950)">
<path d="M4 19L20 19L20 14H22L22 20C22 20.2652 21.8946 20.5196 21.7071 20.7071C21.5196 20.8946 21.2652 21 21 21L3 21C2.73478 21 2.48043 20.8946 2.29289 20.7071C2.10536 20.5196 2 20.2652 2 20L2 14H4V19ZM16.172 6.99999L12.222 3.04999L13.636 1.63599L20 7.99999L13.636 14.364L12.222 12.95L16.172 8.99999L5 8.99999L5 6.99999L16.172 6.99999Z" fill="#68E1FD"/>
</g>
<defs>
<clipPath id="clip0_1212_3950">
<rect width="24" height="24" fill="white"/>
</clipPath>
</defs>
</svg>
