<svg width="25" height="24" viewBox="0 0 25 24" fill="none" xmlns="http://www.w3.org/2000/svg">
<path d="M19.3567 24H6.61638C6.36885 23.9963 6.12821 23.8985 5.92703 23.7198C5.72585 23.5411 5.57385 23.2902 5.4916 23.0009L3.15315 11.5582H2.12014H2.05562C1.76995 11.5582 1.49599 11.4176 1.29399 11.1674C1.092 10.9171 0.978516 10.5778 0.978516 10.2239C0.978516 9.86998 1.092 9.5306 1.29399 9.28036C1.49599 9.03013 1.76995 8.88955 2.05562 8.88955H2.12014H23.9475C24.1959 8.90118 24.4336 9.01772 24.6211 9.21982C24.8087 9.42191 24.9347 9.6974 24.9784 10.0005V10.2199C24.9805 10.3939 24.9546 10.5667 24.9023 10.7282C24.85 10.8897 24.7723 11.0367 24.6737 11.1607C24.5751 11.2846 24.4576 11.383 24.328 11.4502C24.1984 11.5174 24.0593 11.552 23.9189 11.552H23.8536H22.8235L20.4814 23.0009C20.3992 23.2902 20.2472 23.5411 20.046 23.7198C19.8448 23.8985 19.6042 23.9963 19.3567 24V24ZM8.49029 21.3358H8.5548C8.69522 21.3357 8.83422 21.301 8.96373 21.2338C9.09323 21.1666 9.21066 21.0681 9.30918 20.9442C9.4077 20.8202 9.48535 20.6732 9.53761 20.5118C9.58988 20.3503 9.61572 20.1776 9.61363 20.0037V12.8903C9.61591 12.7163 9.59021 12.5435 9.53801 12.3819C9.48581 12.2204 9.40817 12.0733 9.30961 11.9493C9.21105 11.8253 9.09355 11.7269 8.96396 11.6597C8.83437 11.5926 8.69528 11.558 8.5548 11.5582H8.49029H8.42577C8.28541 11.5584 8.14649 11.5932 8.01706 11.6605C7.88764 11.7277 7.7703 11.8262 7.67186 11.9501C7.57341 12.0741 7.49583 12.221 7.44361 12.3824C7.39139 12.5438 7.36557 12.7164 7.36766 12.8903V20.0001C7.36557 20.1741 7.39141 20.3468 7.44367 20.5082C7.49594 20.6697 7.57359 20.8167 7.67211 20.9406C7.77063 21.0646 7.88805 21.163 8.01756 21.2302C8.14706 21.2975 8.28607 21.3321 8.42648 21.3322L8.49029 21.3358ZM17.4835 21.3358H17.548C17.8209 21.3367 18.0833 21.2061 18.2799 20.9717C18.3854 20.8463 18.4689 20.6953 18.5251 20.5281C18.5814 20.361 18.6092 20.1812 18.6068 20.0001V12.8903C18.6091 12.7163 18.5834 12.5435 18.5312 12.3819C18.479 12.2204 18.4014 12.0733 18.3028 11.9493C18.2042 11.8253 18.0867 11.7269 17.9571 11.6597C17.8276 11.5926 17.6885 11.558 17.548 11.5582H17.4835H17.4168C17.2764 11.5584 17.1375 11.5932 17.0081 11.6605C16.8787 11.7277 16.7613 11.8262 16.6629 11.9501C16.5645 12.0741 16.4869 12.221 16.4346 12.3824C16.3824 12.5438 16.3566 12.7164 16.3587 12.8903V20.0001C16.3564 20.1811 16.3843 20.3607 16.4405 20.5277C16.4968 20.6947 16.5802 20.8455 16.6856 20.9708C16.8824 21.2053 17.1451 21.3359 17.4182 21.3349L17.4835 21.3358ZM12.9865 21.3358H13.051C13.3239 21.3367 13.5864 21.2061 13.783 20.9717C13.8885 20.8463 13.9719 20.6953 14.0282 20.5281C14.0844 20.361 14.1122 20.1812 14.1099 20.0001V12.8903C14.1121 12.7163 14.0864 12.5435 14.0342 12.3819C13.982 12.2204 13.9044 12.0733 13.8058 11.9493C13.7073 11.8253 13.5898 11.7269 13.4602 11.6597C13.3306 11.5926 13.1915 11.558 13.051 11.5582H12.9858H12.9191C12.7788 11.5584 12.6399 11.5932 12.5104 11.6605C12.381 11.7277 12.2637 11.8262 12.1652 11.9501C12.0668 12.0741 11.9892 12.221 11.937 12.3824C11.8848 12.5438 11.8589 12.7164 11.861 12.8903V20.0001C11.8588 20.1811 11.8866 20.3607 11.9429 20.5277C11.9991 20.6947 12.0825 20.8455 12.1879 20.9708C12.3847 21.2053 12.6475 21.3359 12.9206 21.3349L12.9865 21.3358ZM19.2635 7.55745H16.7336L14.2963 1.99993C14.195 1.7976 14.1326 1.56908 14.1142 1.3321C14.1121 1.15847 14.1378 0.986052 14.1899 0.824834C14.242 0.663616 14.3194 0.516804 14.4176 0.392904C14.5158 0.269004 14.6329 0.170478 14.7621 0.103035C14.8913 0.035592 15.0299 0.000571856 15.1701 3.65415e-06H15.2346C15.4477 -0.00059325 15.6568 0.0719487 15.8386 0.209583C16.0205 0.347216 16.168 0.544561 16.2648 0.779726L19.262 7.55656L19.2635 7.55745ZM9.24014 7.55745H6.71029L9.7061 0.779726C9.80261 0.544637 9.94985 0.347302 10.1315 0.209653C10.3131 0.0720042 10.5219 -0.000567385 10.7348 3.65415e-06H10.8065C10.9469 0.000221301 11.0859 0.0349762 11.2153 0.102251C11.3448 0.169527 11.4622 0.267983 11.5607 0.391906C11.6592 0.51583 11.7368 0.662753 11.7891 0.82415C11.8414 0.985548 11.8673 1.15821 11.8653 1.3321C11.8452 1.56874 11.7812 1.7964 11.6782 1.99727L9.23942 7.55478L9.24014 7.55745Z" fill="white"/>
</svg>
