<svg width="12" height="9" viewBox="0 0 12 9" fill="none" xmlns="http://www.w3.org/2000/svg">
<path d="M3.99234 9C3.55863 9 3.55863 9 2.22951 7.67838L0.312789 5.78638C0.213795 5.69046 0.135118 5.57581 0.0813976 5.44918C0.0276768 5.32254 0 5.18649 0 5.04906C0 4.91162 0.0276768 4.77557 0.0813976 4.64894C0.135118 4.5223 0.213795 4.40765 0.312789 4.31173C0.509534 4.11634 0.77623 4.00659 1.0543 4.00659C1.33236 4.00659 1.59906 4.11634 1.7958 4.31173L3.99234 6.49588L10.2042 0.305141C10.4009 0.10975 10.6676 0 10.9457 0C11.2238 0 11.4905 0.10975 11.6872 0.305141C11.7862 0.401057 11.8649 0.515712 11.9186 0.642346C11.9723 0.768979 12 0.905026 12 1.04246C12 1.1799 11.9723 1.31595 11.9186 1.44259C11.8649 1.56922 11.7862 1.68387 11.6872 1.77979L4.69187 8.73568C4.49929 8.90628 4.25026 9.00037 3.99234 9Z" fill="white"/>
</svg>
