<svg width="24" height="24" viewBox="0 0 24 24" fill="none" xmlns="http://www.w3.org/2000/svg">
<g clip-path="url(#clip0_1212_3925)">
<path d="M5 8L5 20H9L9 8L5 8ZM3 7L7 2L11 7L11 22H3L3 7ZM19 16V14H16V12H19V10H17V8H19V6H15L15 20L19 20V18H17V16H19ZM14 4L20 4C20.2652 4 20.5196 4.10536 20.7071 4.29289C20.8946 4.48043 21 4.73478 21 5L21 21C21 21.2652 20.8946 21.5196 20.7071 21.7071C20.5196 21.8946 20.2652 22 20 22L14 22C13.7348 22 13.4804 21.8946 13.2929 21.7071C13.1054 21.5196 13 21.2652 13 21L13 5C13 4.73478 13.1054 4.48043 13.2929 4.29289C13.4804 4.10536 13.7348 4 14 4V4Z" fill="white" fill-opacity="0.64"/>
</g>
<defs>
<clipPath id="clip0_1212_3925">
<rect width="24" height="24" fill="white"/>
</clipPath>
</defs>
</svg>
